_________________________  Visit us at _________________________
  
http://p2pdl.com  ____________________________  http://p2pdl.com

 
http://www.shotpix.com/images/68943763532912632894.jpg


The Breakfast Club 1985 BRRip 720p x264 AAC - ViZNU [P2PDL]

			
Genre: Comedy | Drama
Five high school students, all different stereotypes, meet in detention, 
where they pour their hearts out to each other, and discover how they have a lot more in common than they thought.
Director: John Hughes
Stars: Emilio Estevez, Judd Nelson and Molly Ringwald
Rated: No.

Imdb: http://www.imdb.com/title/tt0088847/


General
Complete name                  : The Breakfast Club 1985 BRRip 720p x264 AAC - ViZNU [P2PDL].mp4
Format                         : MPEG-4
Format profile                 : Base Media / Version 2
Codec ID                       : mp42
File size                      : 556 MiB
Duration                       : 1h 37mn

Video
ID                             : 1
Format                         : AVC
Format/Info                    : Advanced Video Codec
Format profile                 : High@L4.1
Width                          : 1 280 pixels
Height                         : 688 pixels
Display aspect ratio           : 1.860
Frame rate mode                : Variable
Frame rate                     : 23.976 fps
Color space                    : YUV
Chroma subsampling             : 4:2:0
Bit depth                      : 8 bits
Scan type                      : Progressive
Bits/(Pixel*Frame)             : 0.033
Stream size                    : 486 MiB (87%)

Audio
ID                             : 2
Format                         : AAC
Channel(s)                     : 2 channels
Channel positions              : Front: L R
Sampling rate                  : 48.0 KHz
Stream size                    : 66.6 MiB (12%)
Language                       : English


Subtitle                       : Yes [Muxed] (English, Danish, Greek, Spanish)


Screens:
 
http://www.shotpix.com/images/42901560454561725139.jpg 
http://www.shotpix.com/images/65367486199061804068.jpg 
http://www.shotpix.com/images/41787574079209183582.jpg 
http://www.shotpix.com/images/73567414788059980600.jpg 
http://www.shotpix.com/images/71512820531015992062.jpg 
http://www.shotpix.com/images/50461854720348564152.jpg

Thumbs:
 
http://www.shotpix.com/images/67647227745525469593.jpg

----------------------------------------------------------------------------------------------------


Recommend to you to use latest version of VLC player. Install K-Lite Codec Pack or shark007 codecs
in case of any kind of problem in playback (For non-VLC Media Player users). Alternatively, install
Core AVC codecs, the fastest decoder that there is coupled with Community Center Codec Pack and play
on Windows Media Player Classic. Check sample to be sure.
Enjoy!

Greets to: VYTO, a2zRG, Stumpie1971, Sheychi, TorDigger, Ash968, StyLishSaLH and staff members at
ExtraTorrent, TPB,KAT, 1337x, PublicHD, Ahashare, BTScene, SilverTorrent, LimeTorrents, TorrentMafia,
P2PDL, and all others.

Encoder Notes: Looking For Early Access To Anything You Can Provide DVDScr, R5, DVDR, BluRay, Direct
Audio, Early Music Releases, Seedboxes, Dedicated Servers anything u can provide, Advance / Promo CDs/
DVDs. If You Got anything to offer contact me at "prg@hush.com".

Facebook Fan Page: www . facebook . com / p2pdl